<?xml version="1.0" encoding="UTF-8" standalone="no"?>
<svg width="27px" height="27px" viewBox="0 0 27 27" version="1.1" xmlns="http://www.w3.org/2000/svg" xmlns:xlink="http://www.w3.org/1999/xlink">
    <!-- Generator: Sketch 40.2 (33826) - http://www.bohemiancoding.com/sketch -->
    <title>Group 10</title>
    <desc>Created with Sketch.</desc>
    <defs></defs>
    <g id="Welcome" stroke="none" stroke-width="1" fill="none" fill-rule="evenodd">
        <g id="Humphreys-Home-Copy" transform="translate(-1290.000000, -3227.000000)" fill="#FFFFFF">
            <g id="Connect-Col" transform="translate(1290.000000, 3227.000000)">
                <g id="Group-10">
                    <path d="M25.0026573,0.149406619 L1.46051436,0.149406619 C0.653810703,0.149406619 0,0.798267425 0,1.59886365 L0,24.9627728 C0,25.7632706 0.653810703,26.4123282 1.46051436,26.4123282 L14.1348639,26.4123282 L14.1348639,16.2419221 L10.6861463,16.2419221 L10.6861463,12.2783017 L14.1348639,12.2783017 L14.1348639,9.35527921 C14.1348639,5.96317583 16.2224178,4.11607753 19.2715514,4.11607753 C20.7321649,4.11607753 21.9874338,4.22392579 22.3532069,4.27214262 L22.3532069,7.81716225 L20.2384853,7.81814626 C18.5802611,7.81814626 18.2591066,8.60014457 18.2591066,9.74770519 L18.2591066,12.2783017 L22.213997,12.2783017 L21.6990988,16.2419221 L18.2591066,16.2419221 L18.2591066,26.4123282 L25.0026573,26.4123282 C25.8092618,26.4123282 26.4631717,25.7632706 26.4631717,24.9627728 L26.4631717,1.59886365 C26.4631717,0.798267425 25.8092618,0.149406619 25.0026573,0.149406619" id="Fill-1"></path>
                </g>
            </g>
        </g>
    </g>
</svg>