<svg id="Layer_1" data-name="Layer 1" xmlns="http://www.w3.org/2000/svg" viewBox="0 0 189.27 99"><defs><style>.cls-1{fill:#deb026;}.cls-2{fill:#fff;}</style></defs><title>HumphreysUniversity_Logo_RGB-White-Gold</title><rect class="cls-1" x="41.87" width="1" height="99"/><path class="cls-2" d="M86.16,90.25a1,1,0,0,0-.57.6,4.49,4.49,0,0,0-.16,1.39v12.62a4.49,4.49,0,0,0,.16,1.39,1,1,0,0,0,.57.6,4.5,4.5,0,0,0,1.34.2v0.51q-1.06-.07-3.25-0.07-2,0-3.23.07V107a4.5,4.5,0,0,0,1.34-.2,1,1,0,0,0,.57-0.6,4.49,4.49,0,0,0,.16-1.39V98.75H74.8v6.11a4.49,4.49,0,0,0,.16,1.39,1,1,0,0,0,.57.6,4.5,4.5,0,0,0,1.34.2v0.51q-1.17-.07-3.23-0.07t-3.25.07V107a4.5,4.5,0,0,0,1.34-.2,1,1,0,0,0,.57-0.6,4.49,4.49,0,0,0,.16-1.39V92.24a4.49,4.49,0,0,0-.16-1.39,1,1,0,0,0-.57-0.6,4.5,4.5,0,0,0-1.34-.2V89.54q1.06,0.07,3.25.07t3.23-.07v0.51a4.5,4.5,0,0,0-1.34.2,1,1,0,0,0-.57.6,4.49,4.49,0,0,0-.16,1.39v6h8.27v-6a4.49,4.49,0,0,0-.16-1.39,1,1,0,0,0-.57-0.6,4.5,4.5,0,0,0-1.34-.2V89.54q1.19,0.07,3.23.07t3.25-.07v0.51A4.5,4.5,0,0,0,86.16,90.25Z" transform="translate(-13.36 -58.5)"/><path class="cls-2" d="M101.12,106.52a1.85,1.85,0,0,0,1.51.53v0.53q-0.79-.07-1.58-0.07a8,8,0,0,0-2.65.36v-3a4.81,4.81,0,0,1-1.73,2.31,4.29,4.29,0,0,1-2.44.75,3.5,3.5,0,0,1-2.65-1,2.85,2.85,0,0,1-.65-1.29,8.88,8.88,0,0,1-.19-2V97.23a2.78,2.78,0,0,0-.42-1.71,1.82,1.82,0,0,0-1.5-.53V94.45q0.79,0.07,1.58.07A8.49,8.49,0,0,0,93,94.18v10a8.82,8.82,0,0,0,.11,1.57,1.69,1.69,0,0,0,.53,1,1.86,1.86,0,0,0,1.28.38,2.8,2.8,0,0,0,1.76-.61A4.06,4.06,0,0,0,98,104.82a5.93,5.93,0,0,0,.45-2.34V97.23A2.74,2.74,0,0,0,98,95.52,1.84,1.84,0,0,0,96.47,95V94.45q0.79,0.07,1.58.07a8.42,8.42,0,0,0,2.65-.35v10.63A2.71,2.71,0,0,0,101.12,106.52Z" transform="translate(-13.36 -58.5)"/><path class="cls-2" d="M123.78,106.3a1.1,1.1,0,0,0,.61.56,3.22,3.22,0,0,0,1.14.16v0.53q-2.33-.1-3.06-0.1t-2.84.1V107a2.44,2.44,0,0,0,1-.16,1,1,0,0,0,.52-0.56,2.94,2.94,0,0,0,.17-1.11V97.84a8.92,8.92,0,0,0-.11-1.57,1.69,1.69,0,0,0-.53-1,1.89,1.89,0,0,0-1.29-.38,2.78,2.78,0,0,0-1.75.61,4.06,4.06,0,0,0-1.23,1.66,5.93,5.93,0,0,0-.45,2.34v5.68a2.59,2.59,0,0,0,.19,1.11,1.1,1.1,0,0,0,.6.56,3.17,3.17,0,0,0,1.13.16v0.53q-2.33-.1-3-0.1t-2.86.1V107a2.48,2.48,0,0,0,1-.16,1,1,0,0,0,.52-0.56,3,3,0,0,0,.16-1.11V97.84a8.92,8.92,0,0,0-.11-1.57,1.69,1.69,0,0,0-.53-1,1.87,1.87,0,0,0-1.28-.38,2.78,2.78,0,0,0-1.76.62,4.1,4.1,0,0,0-1.23,1.68,6,6,0,0,0-.45,2.34v5.65a2.9,2.9,0,0,0,.17,1.11,1,1,0,0,0,.53.56,2.48,2.48,0,0,0,1,.16v0.53q-2.14-.1-2.86-0.1t-3.06.1V107a3.22,3.22,0,0,0,1.14-.16,1.09,1.09,0,0,0,.61-0.56,2.58,2.58,0,0,0,.19-1.11v-8a2.74,2.74,0,0,0-.43-1.71A1.84,1.84,0,0,0,104,95V94.45q0.79,0.07,1.58.07a8.42,8.42,0,0,0,2.65-.35v3A4.83,4.83,0,0,1,110,94.86a4.27,4.27,0,0,1,2.43-.75,3.5,3.5,0,0,1,2.65,1,3.55,3.55,0,0,1,.78,2,4.32,4.32,0,0,1,4.24-3,3.5,3.5,0,0,1,2.65,1,2.88,2.88,0,0,1,.65,1.3,9.17,9.17,0,0,1,.19,2v6.79A2.59,2.59,0,0,0,123.78,106.3Z" transform="translate(-13.36 -58.5)"/><path class="cls-2" d="M132.46,94.82a4.43,4.43,0,0,1,4.86,0A4.86,4.86,0,0,1,139,97a8.63,8.63,0,0,1,.61,3.42,10.63,10.63,0,0,1-.62,3.66,6.26,6.26,0,0,1-1.93,2.78,5,5,0,0,1-3.27,1.07,4,4,0,0,1-1.76-.38,3.08,3.08,0,0,1-1.22-1v3.25a1.59,1.59,0,0,0,.61,1.44,3.37,3.37,0,0,0,1.84.4v0.53l-1.45-.06q-1.12-.05-2.22,0-0.81,0-1.66,0l-1.08.06v-0.53a1.93,1.93,0,0,0,1.3-.34,1.64,1.64,0,0,0,.37-1.24V97.23a2.75,2.75,0,0,0-.43-1.71A1.84,1.84,0,0,0,126.6,95V94.45q0.8,0.07,1.58.07a8.42,8.42,0,0,0,2.65-.35v2.68A4.59,4.59,0,0,1,132.46,94.82Zm-0.58,12.07a3,3,0,0,0,1.64.44q3.64,0,3.64-6.57,0-5.9-3-5.9a3,3,0,0,0-2.07.83,4.68,4.68,0,0,0-1.31,2.39v7.61A2.93,2.93,0,0,0,131.88,106.89Z" transform="translate(-13.36 -58.5)"/><path class="cls-2" d="M147.45,94.82A4.7,4.7,0,0,1,150,94.1a3.57,3.57,0,0,1,2.7,1,3,3,0,0,1,.69,1.29,8.18,8.18,0,0,1,.21,2.06v6.79a2.59,2.59,0,0,0,.19,1.11,1.1,1.1,0,0,0,.61.56,3.22,3.22,0,0,0,1.14.16v0.53q-2.39-.1-3.06-0.1t-2.86.1V107a2.48,2.48,0,0,0,1-.16,1,1,0,0,0,.53-0.56,2.94,2.94,0,0,0,.17-1.11V97.84a6.73,6.73,0,0,0-.15-1.54,1.84,1.84,0,0,0-.6-1,2,2,0,0,0-1.31-.39,3.06,3.06,0,0,0-1.85.59,3.86,3.86,0,0,0-1.27,1.64,6,6,0,0,0-.45,2.38v5.68a2.9,2.9,0,0,0,.17,1.11,1,1,0,0,0,.52.56,2.43,2.43,0,0,0,1,.16v0.53q-2.14-.1-2.84-0.1t-3.06.1V107a3.23,3.23,0,0,0,1.14-.16,1.09,1.09,0,0,0,.61-0.56,2.57,2.57,0,0,0,.19-1.11V90.69A2.72,2.72,0,0,0,143,89a1.85,1.85,0,0,0-1.51-.53V87.92Q142.26,88,143,88a8,8,0,0,0,2.65-.36v9.52A4.63,4.63,0,0,1,147.45,94.82Z" transform="translate(-13.36 -58.5)"/><path class="cls-2" d="M161.81,95.82a4.85,4.85,0,0,1,1.29-1.23,2.85,2.85,0,0,1,1.58-.48,2.63,2.63,0,0,1,1.2.27,2.08,2.08,0,0,1,.83.73,1.81,1.81,0,0,1,.3,1,1.7,1.7,0,0,1-.4,1.14,1.32,1.32,0,0,1-1.06.47,1.38,1.38,0,0,1-1-.35,1.22,1.22,0,0,1-.4-1,1.6,1.6,0,0,1,.87-1.38,0.61,0.61,0,0,0-.53-0.25,2.56,2.56,0,0,0-1.81.77,5.39,5.39,0,0,0-1.27,1.9,5.62,5.62,0,0,0-.46,2.11v5.39a1.83,1.83,0,0,0,.67,1.63,3.64,3.64,0,0,0,2,.45v0.53q-3.13-.1-3.91-0.1t-3,.1V107a3.23,3.23,0,0,0,1.14-.16,1.09,1.09,0,0,0,.61-0.56,2.57,2.57,0,0,0,.19-1.11v-8a2.75,2.75,0,0,0-.43-1.71,1.84,1.84,0,0,0-1.51-.53V94.45q0.8,0.07,1.58.07a8.42,8.42,0,0,0,2.65-.35v3.18A6.2,6.2,0,0,1,161.81,95.82Z" transform="translate(-13.36 -58.5)"/><path class="cls-2" d="M177.79,106.17a5,5,0,0,1-1.63,1.26,4.84,4.84,0,0,1-2.18.48,5.79,5.79,0,0,1-3.14-.83,5.29,5.29,0,0,1-2-2.32,8.1,8.1,0,0,1-.7-3.45,9.56,9.56,0,0,1,.71-3.84,5.63,5.63,0,0,1,2-2.5,5.29,5.29,0,0,1,3-.88,4.48,4.48,0,0,1,3.52,1.38,6.16,6.16,0,0,1,1.24,4.21h-8a12.68,12.68,0,0,0-.09,1.63,7.23,7.23,0,0,0,.55,2.93,4.72,4.72,0,0,0,1.45,1.93,3.1,3.1,0,0,0,1.89.67,3.91,3.91,0,0,0,3.74-2.55l0.51,0.2A5.07,5.07,0,0,1,177.79,106.17ZM176,96.89a3.83,3.83,0,0,0-.82-1.68,1.78,1.78,0,0,0-1.38-.62,2.33,2.33,0,0,0-1.44.5,3.82,3.82,0,0,0-1.11,1.54,8.12,8.12,0,0,0-.58,2.58h5.54A8.3,8.3,0,0,0,176,96.89Z" transform="translate(-13.36 -58.5)"/><path class="cls-2" d="M190.36,94.53q1.13,0,1.94-.07V95a1.52,1.52,0,0,0-.91.46,3.78,3.78,0,0,0-.75,1.33l-4.17,10.93-0.87,2.21a4.55,4.55,0,0,1-1.09,1.79,2.84,2.84,0,0,1-2,.66,1.87,1.87,0,0,1-1.24-.4,1.38,1.38,0,0,1-.48-1.12,1.25,1.25,0,0,1,1.35-1.34,1.38,1.38,0,0,1,.93.31,1.09,1.09,0,0,1,.37.88,1.24,1.24,0,0,1-.68,1.14,0.35,0.35,0,0,0,.15,0q1.4,0,2.16-2l0.91-2.32-4.62-11.11a2.87,2.87,0,0,0-.86-1.16,1.59,1.59,0,0,0-.86-0.27V94.45a18.55,18.55,0,0,0,2.5.16q1.09,0,3.3-.16V95a8.14,8.14,0,0,0-1,0,1.09,1.09,0,0,0-.58.24,0.75,0.75,0,0,0-.23.6,3.61,3.61,0,0,0,.32,1.25l3.07,7.6,2.81-7.37a3.66,3.66,0,0,0,.27-1.17,1,1,0,0,0-.45-0.88,3.18,3.18,0,0,0-1.45-.35V94.45Q189.56,94.53,190.36,94.53Z" transform="translate(-13.36 -58.5)"/><path class="cls-2" d="M195.11,105.25a3.35,3.35,0,0,0,1.07,1.59,3,3,0,0,0,1.94.57,2.48,2.48,0,0,0,1.07-.24,2,2,0,0,0,.85-0.78,2.62,2.62,0,0,0,.34-1.4,2.28,2.28,0,0,0-.35-1.25,4,4,0,0,0-.93-1q-0.57-.44-1.6-1.09-1.25-.8-1.92-1.3a4.69,4.69,0,0,1-1.12-1.24,3.18,3.18,0,0,1-.46-1.73,3.14,3.14,0,0,1,.51-1.82,3.07,3.07,0,0,1,1.36-1.1,4.82,4.82,0,0,1,1.89-.36,4.3,4.3,0,0,1,1.61.29,4.52,4.52,0,0,1,1.16.65,0.82,0.82,0,0,0,.45.21q0.45,0,.57-1.12h0.58q-0.1,1.24-.1,4.32h-0.58a6.31,6.31,0,0,0-1.08-2.77A2.78,2.78,0,0,0,198,94.59a2.19,2.19,0,0,0-1.5.52,1.81,1.81,0,0,0-.58,1.43,2,2,0,0,0,.6,1.47,8.66,8.66,0,0,0,1.45,1.12l1.21,0.77a21.05,21.05,0,0,1,1.88,1.35,5,5,0,0,1,1.15,1.35,3.42,3.42,0,0,1,.44,1.74,3.17,3.17,0,0,1-.59,1.93,3.69,3.69,0,0,1-1.58,1.22,5.58,5.58,0,0,1-2.17.42,5.29,5.29,0,0,1-2-.36,6,6,0,0,1-1-.68,0.32,0.32,0,0,0-.24-0.1q-0.37,0-.52,1h-0.58q0.1-1.45.1-5.08h0.58A12.86,12.86,0,0,0,195.11,105.25Z" transform="translate(-13.36 -58.5)"/><path class="cls-2" d="M84.66,115.75a1.14,1.14,0,0,0-.58.71,5.28,5.28,0,0,0-.16,1.48v7.65a17.52,17.52,0,0,1-.24,3.14,6.83,6.83,0,0,1-.8,2.26A4.55,4.55,0,0,1,81,132.72a6,6,0,0,1-2.78.64A6,6,0,0,1,73.94,132a5.49,5.49,0,0,1-1.16-1.5,6.1,6.1,0,0,1-.57-1.91,21.13,21.13,0,0,1-.16-2.91v-8a4.49,4.49,0,0,0-.16-1.39,1,1,0,0,0-.57-0.6,4.5,4.5,0,0,0-1.34-.2V115q1.08,0.07,3.25.07t3.24-.07v0.51a4.5,4.5,0,0,0-1.34.2,1,1,0,0,0-.57.6,4.49,4.49,0,0,0-.16,1.39v8.42a17.38,17.38,0,0,0,.27,3.38,4,4,0,0,0,1.15,2.16,3.66,3.66,0,0,0,2.59.82,4.13,4.13,0,0,0,3.79-1.73,9.08,9.08,0,0,0,1.09-4.86v-7.94a3.83,3.83,0,0,0-.22-1.45,1.36,1.36,0,0,0-.71-0.73,3.82,3.82,0,0,0-1.39-.26V115q0.92,0.07,2.6.07T86,115v0.51A3.33,3.33,0,0,0,84.66,115.75Z" transform="translate(-13.36 -58.5)"/><path class="cls-2" d="M93.13,120.27a4.65,4.65,0,0,1,2.57-.73,3.57,3.57,0,0,1,2.7,1,3.06,3.06,0,0,1,.68,1.29,8.23,8.23,0,0,1,.2,2.06v6.79a2.58,2.58,0,0,0,.19,1.11,1.09,1.09,0,0,0,.61.56,3.22,3.22,0,0,0,1.14.16V133q-2.34-.1-3.06-0.1t-2.84.1v-0.53a2.43,2.43,0,0,0,1-.16,1,1,0,0,0,.52-0.56,2.92,2.92,0,0,0,.17-1.11v-7.35a7,7,0,0,0-.14-1.54,1.81,1.81,0,0,0-.6-1,2,2,0,0,0-1.32-.39,3,3,0,0,0-1.86.61,3.94,3.94,0,0,0-1.26,1.67,6,6,0,0,0-.45,2.35v5.65a2.92,2.92,0,0,0,.17,1.11,1,1,0,0,0,.53.56,2.48,2.48,0,0,0,1,.16V133q-2.14-.1-2.86-0.1t-3.06.1v-0.53a3.22,3.22,0,0,0,1.14-.16,1.09,1.09,0,0,0,.61-0.56,2.58,2.58,0,0,0,.19-1.11v-8a2.74,2.74,0,0,0-.43-1.71,1.84,1.84,0,0,0-1.51-.53v-0.53q0.79,0.07,1.58.07a8.42,8.42,0,0,0,2.65-.35v3A4.69,4.69,0,0,1,93.13,120.27Z" transform="translate(-13.36 -58.5)"/><path class="cls-2" d="M106.87,131.74a1.09,1.09,0,0,0,.61.56,3.23,3.23,0,0,0,1.14.16V133q-2.33-.1-3.08-0.1t-3.08.1v-0.53a3.22,3.22,0,0,0,1.14-.16,1.09,1.09,0,0,0,.61-0.56,2.58,2.58,0,0,0,.19-1.11v-8A2.74,2.74,0,0,0,104,121a1.84,1.84,0,0,0-1.51-.53v-0.53q0.79,0.07,1.58.07a8.42,8.42,0,0,0,2.65-.35v11A2.57,2.57,0,0,0,106.87,131.74Zm-0.7-18a1.71,1.71,0,0,1,.6.6,1.54,1.54,0,0,1,.22.81,1.58,1.58,0,0,1-.22.81,1.65,1.65,0,0,1-.6.6,1.58,1.58,0,0,1-.81.22,1.61,1.61,0,0,1-.81-0.22,1.59,1.59,0,0,1-.6-0.6,1.61,1.61,0,0,1-.22-0.81,1.58,1.58,0,0,1,.22-0.81,1.64,1.64,0,0,1,.6-0.6,1.57,1.57,0,0,1,.81-0.22A1.54,1.54,0,0,1,106.17,113.76Z" transform="translate(-13.36 -58.5)"/><path class="cls-2" d="M119.75,120q1.12,0,1.93-.07v0.51a1.52,1.52,0,0,0-.91.46,3.78,3.78,0,0,0-.75,1.33l-4.17,10.93h-0.42l-4.68-11.27a2.87,2.87,0,0,0-.74-1.16,1.23,1.23,0,0,0-.74-0.27v-0.53q1.32,0.1,2.24.1,2,0,3.3-.1v0.53a8.46,8.46,0,0,0-1,0,1.12,1.12,0,0,0-.58.23,0.72,0.72,0,0,0-.23.6,3.25,3.25,0,0,0,.27,1.12l3.13,7.74,2.81-7.35a3.33,3.33,0,0,0,.27-1.18,1,1,0,0,0-.45-0.87,3.11,3.11,0,0,0-1.43-.35v-0.51Q118.93,120,119.75,120Z" transform="translate(-13.36 -58.5)"/><path class="cls-2" d="M132.47,131.61a5,5,0,0,1-1.63,1.26,4.84,4.84,0,0,1-2.18.48,5.79,5.79,0,0,1-3.14-.83,5.29,5.29,0,0,1-2-2.32,8.1,8.1,0,0,1-.7-3.45,9.56,9.56,0,0,1,.71-3.84,5.63,5.63,0,0,1,2-2.5,5.29,5.29,0,0,1,3-.88,4.48,4.48,0,0,1,3.52,1.38,6.16,6.16,0,0,1,1.24,4.21h-8a12.68,12.68,0,0,0-.09,1.63,7.23,7.23,0,0,0,.55,2.93,4.72,4.72,0,0,0,1.45,1.93,3.1,3.1,0,0,0,1.89.67,3.91,3.91,0,0,0,3.74-2.55l0.51,0.2A5.07,5.07,0,0,1,132.47,131.61Zm-1.81-9.29a3.83,3.83,0,0,0-.82-1.68,1.78,1.78,0,0,0-1.38-.62,2.33,2.33,0,0,0-1.44.5,3.82,3.82,0,0,0-1.11,1.54,8.12,8.12,0,0,0-.58,2.58h5.54A8.3,8.3,0,0,0,130.66,122.33Z" transform="translate(-13.36 -58.5)"/><path class="cls-2" d="M140.42,121.26a4.85,4.85,0,0,1,1.29-1.23,2.85,2.85,0,0,1,1.58-.48,2.63,2.63,0,0,1,1.2.27,2.08,2.08,0,0,1,.83.73,1.81,1.81,0,0,1,.3,1,1.7,1.7,0,0,1-.4,1.14,1.32,1.32,0,0,1-1.06.47,1.38,1.38,0,0,1-1-.35,1.22,1.22,0,0,1-.4-1,1.6,1.6,0,0,1,.87-1.38,0.61,0.61,0,0,0-.53-0.25,2.56,2.56,0,0,0-1.81.77,5.39,5.39,0,0,0-1.27,1.9,5.62,5.62,0,0,0-.46,2.11v5.39a1.83,1.83,0,0,0,.67,1.63,3.64,3.64,0,0,0,2,.45V133q-3.13-.1-3.91-0.1t-3,.1v-0.53a3.23,3.23,0,0,0,1.14-.16,1.09,1.09,0,0,0,.61-0.56,2.57,2.57,0,0,0,.19-1.11v-8a2.75,2.75,0,0,0-.43-1.71,1.84,1.84,0,0,0-1.51-.53v-0.53q0.8,0.07,1.58.07a8.42,8.42,0,0,0,2.65-.35v3.18A6.2,6.2,0,0,1,140.42,121.26Z" transform="translate(-13.36 -58.5)"/><path class="cls-2" d="M148.7,130.69a3.35,3.35,0,0,0,1.07,1.59,3,3,0,0,0,1.94.57,2.48,2.48,0,0,0,1.07-.24,2,2,0,0,0,.85-0.78,2.62,2.62,0,0,0,.34-1.4,2.28,2.28,0,0,0-.35-1.25,4,4,0,0,0-.93-1q-0.57-.44-1.6-1.09-1.25-.8-1.92-1.3a4.69,4.69,0,0,1-1.12-1.24,3.18,3.18,0,0,1-.46-1.73,3.14,3.14,0,0,1,.51-1.82,3.07,3.07,0,0,1,1.36-1.1,4.82,4.82,0,0,1,1.89-.36,4.3,4.3,0,0,1,1.61.29,4.52,4.52,0,0,1,1.16.65,0.82,0.82,0,0,0,.45.21q0.45,0,.57-1.12h0.58q-0.1,1.24-.1,4.32H155a6.31,6.31,0,0,0-1.08-2.77,2.78,2.78,0,0,0-2.39-1.09,2.19,2.19,0,0,0-1.5.52,1.81,1.81,0,0,0-.58,1.43,2,2,0,0,0,.6,1.47,8.66,8.66,0,0,0,1.45,1.12l1.21,0.77a21.05,21.05,0,0,1,1.88,1.35,5,5,0,0,1,1.15,1.35,3.42,3.42,0,0,1,.44,1.74,3.17,3.17,0,0,1-.59,1.93,3.69,3.69,0,0,1-1.58,1.22,5.58,5.58,0,0,1-2.17.42,5.29,5.29,0,0,1-2-.36,6,6,0,0,1-1-.68,0.32,0.32,0,0,0-.24-0.1q-0.37,0-.52,1h-0.58q0.1-1.45.1-5.08h0.58A12.86,12.86,0,0,0,148.7,130.69Z" transform="translate(-13.36 -58.5)"/><path class="cls-2" d="M162.7,131.74a1.09,1.09,0,0,0,.61.56,3.23,3.23,0,0,0,1.14.16V133q-2.33-.1-3.08-0.1t-3.08.1v-0.53a3.23,3.23,0,0,0,1.14-.16,1.09,1.09,0,0,0,.61-0.56,2.57,2.57,0,0,0,.19-1.11v-8a2.75,2.75,0,0,0-.43-1.71,1.84,1.84,0,0,0-1.51-.53v-0.53q0.8,0.07,1.58.07a8.42,8.42,0,0,0,2.65-.35v11A2.57,2.57,0,0,0,162.7,131.74Zm-0.7-18a1.71,1.71,0,0,1,.6.6,1.54,1.54,0,0,1,.22.81,1.58,1.58,0,0,1-.22.81,1.65,1.65,0,0,1-.6.6,1.58,1.58,0,0,1-.81.22,1.62,1.62,0,0,1-.81-0.22,1.59,1.59,0,0,1-.6-0.6,1.62,1.62,0,0,1-.22-0.81,1.58,1.58,0,0,1,.22-0.81,1.65,1.65,0,0,1,.6-0.6,1.58,1.58,0,0,1,.81-0.22A1.54,1.54,0,0,1,162,113.76Z" transform="translate(-13.36 -58.5)"/><path class="cls-2" d="M173.74,119.92v0.51H170v9.85a2.64,2.64,0,0,0,.41,1.66,1.48,1.48,0,0,0,1.22.5,1.74,1.74,0,0,0,1.35-.63,5.24,5.24,0,0,0,.94-2.09l0.5,0.12q-0.62,3.52-3.3,3.52a4.14,4.14,0,0,1-1.42-.21,2.7,2.7,0,0,1-1-.64,3.1,3.1,0,0,1-.77-1.37,8.58,8.58,0,0,1-.22-2.19v-8.52h-2.45v-0.51h2.45V116a7.18,7.18,0,0,0,2.29-.36v4.25h3.76Z" transform="translate(-13.36 -58.5)"/><path class="cls-2" d="M184.91,120q1.13,0,1.94-.07v0.51a1.52,1.52,0,0,0-.91.46,3.78,3.78,0,0,0-.75,1.33L181,133.12l-0.87,2.21a4.55,4.55,0,0,1-1.09,1.79,2.84,2.84,0,0,1-2,.66,1.87,1.87,0,0,1-1.24-.4,1.38,1.38,0,0,1-.48-1.12,1.25,1.25,0,0,1,1.35-1.34,1.38,1.38,0,0,1,.93.31,1.09,1.09,0,0,1,.37.88,1.24,1.24,0,0,1-.68,1.14,0.35,0.35,0,0,0,.15,0q1.4,0,2.16-2l0.91-2.32-4.62-11.11a2.87,2.87,0,0,0-.86-1.16,1.59,1.59,0,0,0-.86-0.27v-0.53a18.55,18.55,0,0,0,2.5.16q1.09,0,3.3-.16v0.53a8.14,8.14,0,0,0-1,0,1.09,1.09,0,0,0-.58.24,0.75,0.75,0,0,0-.23.6,3.61,3.61,0,0,0,.32,1.25l3.07,7.6,2.81-7.37a3.66,3.66,0,0,0,.27-1.17,1,1,0,0,0-.45-0.88,3.18,3.18,0,0,0-1.45-.35v-0.51Q184.12,120,184.91,120Z" transform="translate(-13.36 -58.5)"/><rect class="cls-2" x="26.95" y="98.54" width="2.21" height="23.05" rx="0.74" ry="0.74" transform="translate(-95.37 79.63) rotate(-90)"/><path class="cls-1" d="M29.68,71.29S26,74.87,26.09,77.67s4.06,6.62,4.21,11.61c0.1,3.36-2.66,12.37-3.31,12.85,2.22-1,9.06-7.75,8.93-12.6S32.2,81,30.5,78.56A9.58,9.58,0,0,1,29.68,71.29Z" transform="translate(-13.36 -58.5)"/><path class="cls-1" d="M25,81.35s2.06,1.9,2.11,3.49-2,3.86-1.87,6.68a23.72,23.72,0,0,0,2.16,7.15c-1.21-.48-5.06-4.09-5.13-6.83s1.71-4.95,2.53-6.36A5.72,5.72,0,0,0,25,81.35Z" transform="translate(-13.36 -58.5)"/><path class="cls-2" d="M23.43,123.1l-1.76-1.25c0-2.71,0-5.49,0-8.7H18.22v22.06a13.41,13.41,0,0,1,3.45,2.42c0-5.05,0-9,0-12.79l1.76,1.29c0,4,0,8.16,0,13.41a25.23,25.23,0,0,1,3.44,5.16V113.15H23.42C23.42,116.78,23.43,119.95,23.43,123.1Z" transform="translate(-13.36 -58.5)"/><path class="cls-2" d="M37.87,113.15H34.44c0,7.89,0,21.14,0,21.14l-1.78,1.57c0-8.62,0-14.46,0-22.7H29.23v31.56c3.34-5.36,6.42-8.5,8.67-9.49v-22Z" transform="translate(-13.36 -58.5)"/><path class="cls-2" d="M28.06,104.05a89.94,89.94,0,0,1-14.7-1.1v1.71a3,3,0,0,0,3,3H39.74a3,3,0,0,0,3-3V103A89.94,89.94,0,0,1,28.06,104.05Z" transform="translate(-13.36 -58.5)"/><path class="cls-1" d="M71.82,144.36v-5.5h3.36v0.86H72.76v1.44h2.18V142H72.76v1.52h2.42v0.86H71.82Z" transform="translate(-13.36 -58.5)"/><path class="cls-1" d="M78.72,144.45a3.24,3.24,0,0,1-1.73-.54l0.32-.84a2.55,2.55,0,0,0,1.43.51,0.72,0.72,0,0,0,.83-0.72c0-.38-0.17-0.62-1-1a1.67,1.67,0,0,1-1.31-1.56A1.63,1.63,0,0,1,79,138.77a2.61,2.61,0,0,1,1.38.4l-0.3.83a2.13,2.13,0,0,0-1.1-.39,0.72,0.72,0,0,0-.85.68c0,0.37.27,0.58,1,.89,1.09,0.47,1.4.92,1.4,1.64A1.67,1.67,0,0,1,78.72,144.45Z" transform="translate(-13.36 -58.5)"/><path class="cls-1" d="M84.83,139.71v4.65H83.89v-4.65H82.14v-0.86h4.43v0.86H84.83Z" transform="translate(-13.36 -58.5)"/><path class="cls-1" d="M88.06,143.44a0.49,0.49,0,1,1-.49.49A0.49,0.49,0,0,1,88.06,143.44Z" transform="translate(-13.36 -58.5)"/><path class="cls-1" d="M94.33,144.36v-4.53l-0.95.33-0.26-.73,1.85-.68h0.3v5.6H94.33Z" transform="translate(-13.36 -58.5)"/><path class="cls-1" d="M99.51,144.45a1.67,1.67,0,0,1-1.87-1.55,1.39,1.39,0,0,1,.89-1.32,1.39,1.39,0,0,1-.75-1.27,1.75,1.75,0,0,1,3.48,0,1.43,1.43,0,0,1-.76,1.28,1.38,1.38,0,0,1,.89,1.32A1.67,1.67,0,0,1,99.51,144.45Zm0-2.53a0.83,0.83,0,0,0-.89.85A0.9,0.9,0,1,0,99.51,141.92Zm0-2.34a0.8,0.8,0,0,0-.83.86,0.83,0.83,0,0,0,1.67,0A0.8,0.8,0,0,0,99.51,139.58Z" transform="translate(-13.36 -58.5)"/><path class="cls-1" d="M105.24,138.77a1.91,1.91,0,0,1,2,2c0,1.67-1.15,2.85-3.12,3.81l-0.44-.75a5.35,5.35,0,0,0,2.33-1.73,1.73,1.73,0,0,1-2.7-1.46A1.88,1.88,0,0,1,105.24,138.77Zm0,2.92a1,1,0,0,0,1-1.06A1,1,0,1,0,105.21,141.69Z" transform="translate(-13.36 -58.5)"/><path class="cls-1" d="M111,144.46a1.88,1.88,0,0,1-1.94-2c0-1.35.8-2.72,3.08-3.84l0.42,0.76a5.26,5.26,0,0,0-2.3,1.79,1.59,1.59,0,0,1,1-.34,1.66,1.66,0,0,1,1.71,1.72A1.87,1.87,0,0,1,111,144.46Zm0-2.91a1,1,0,0,0-1,1,1,1,0,0,0,1,1.08,1,1,0,0,0,1-1.07A1,1,0,0,0,111.06,141.55Z" transform="translate(-13.36 -58.5)"/></svg>