<?xml version="1.0" encoding="UTF-8" standalone="no"?>
<svg width="27px" height="27px" viewBox="0 0 27 27" version="1.1" xmlns="http://www.w3.org/2000/svg" xmlns:xlink="http://www.w3.org/1999/xlink">
    <!-- Generator: Sketch 40.2 (33826) - http://www.bohemiancoding.com/sketch -->
    <title>Group 7</title>
    <desc>Created with Sketch.</desc>
    <defs></defs>
    <g id="Welcome" stroke="none" stroke-width="1" fill="none" fill-rule="evenodd">
        <g id="Humphreys-Home-Copy" transform="translate(-1338.000000, -3227.000000)" fill="#FFFFFF">
            <g id="Connect-Col" transform="translate(1290.000000, 3227.000000)">
                <g id="Group-7" transform="translate(48.000000, 0.000000)">
                    <g id="Page-1">
                        <path d="M21.3122956,3.70402706 C20.8252689,3.70402706 20.3381737,3.70115456 19.851147,3.70471099 C19.2049697,3.70949851 18.7764874,4.10829823 18.7675963,4.74907248 C18.7538493,5.74008742 18.7539861,6.73151271 18.7678699,7.72252764 C18.7765558,8.34538292 19.180485,8.75163748 19.802588,8.76080215 C20.7935345,8.77543826 21.7850282,8.77482272 22.7760431,8.76162287 C23.4180484,8.75314213 23.8212253,8.32342875 23.8227984,7.68142343 C23.8252605,6.7158507 23.8253973,5.75027798 23.82273,4.78470525 C23.8209518,4.13620259 23.3975305,3.71107154 22.7477968,3.70491617 C22.2693192,3.70040223 21.7907732,3.70402706 21.3122956,3.70402706 L21.3122956,3.70402706 Z M18.7699217,13.8205865 C18.7815485,11.0337075 16.5168503,8.7632643 13.721217,8.75902393 C10.9392623,8.75485196 8.69084159,10.9916458 8.66587814,13.788305 C8.64098308,16.5695074 10.899184,18.8449433 13.701725,18.8625203 C16.4866889,18.8800973 18.7582949,16.6201866 18.7699217,13.8205865 L18.7699217,13.8205865 Z M3.6233288,11.8026503 C3.61895165,11.8914245 3.61272788,11.9582445 3.61272788,12.0250644 C3.61224913,15.632181 3.61129163,19.2392975 3.61320664,22.846414 C3.6135486,23.5000462 4.04770752,23.9160809 4.72438811,23.9161493 C10.716301,23.9171068 16.7082139,23.9170384 22.7000585,23.9162861 C23.4133977,23.9162177 23.8231403,23.5003881 23.8232087,22.7807567 C23.8237559,19.2163858 23.8234823,15.6520833 23.8234823,12.0877125 L23.8234823,11.8067539 L21.5490039,11.8067539 C22.1129043,14.3031677 21.7156093,16.6058925 20.1783392,18.6455093 C18.6379915,20.6893664 16.5564498,21.7762 13.9921217,21.8746859 C11.8462906,21.9570311 9.93785162,21.2858904 8.35516863,19.8392411 C5.97522814,17.663659 5.22140022,14.9472248 5.87496397,11.8026503 L3.6233288,11.8026503 Z M0.586404923,24.2752811 L0.586404923,3.34701547 C0.603708358,3.29052283 0.625320554,3.2349877 0.637699692,3.17740077 C0.910929826,1.90364907 1.6789835,1.10064657 2.93447426,0.761143593 C3.04048344,0.732418522 3.14731335,0.706771138 3.2537329,0.6796875 L24.1819985,0.6796875 C24.2298053,0.69596504 24.2764493,0.717782415 24.3255555,0.727767797 C25.6140117,0.990738977 26.4235799,1.76166515 26.7675284,3.02720969 C26.7963903,3.13342406 26.8221061,3.24039075 26.8493265,3.34701547 L26.8493265,24.2752811 C26.8319547,24.3317737 26.808701,24.3871721 26.7980317,24.4448958 C26.573429,25.6642067 25.65409,26.6172635 24.4520826,26.8760627 C24.3614618,26.8955547 24.2720038,26.920313 24.1819985,26.9426091 L3.2537329,26.9426091 C3.20599456,26.9263315 3.15935052,26.9035567 3.11024433,26.8946656 C1.8780072,26.6727986 0.940954364,25.7842364 0.660611355,24.5706706 C0.637768085,24.4717743 0.611231591,24.3737671 0.586404923,24.2752811 L0.586404923,24.2752811 Z" id="Fill-1"></path>
                    </g>
                </g>
            </g>
        </g>
    </g>
</svg>