<?xml version="1.0" encoding="UTF-8" standalone="no"?>
<svg width="32px" height="29px" viewBox="0 0 32 29" version="1.1" xmlns="http://www.w3.org/2000/svg" xmlns:xlink="http://www.w3.org/1999/xlink">
    <!-- Generator: Sketch 40.2 (33826) - http://www.bohemiancoding.com/sketch -->
    <title>Group 6</title>
    <desc>Created with Sketch.</desc>
    <defs>
        <polygon id="path-1" points="31.4211578 14.6860158 31.4211578 28.4361483 0.586404923 28.4361483 0.586404923 14.6860158 0.586404923 0.935883249 31.4211578 0.935883249"></polygon>
    </defs>
    <g id="Welcome" stroke="none" stroke-width="1" fill="none" fill-rule="evenodd">
        <g id="Humphreys-Home-Copy" transform="translate(-1338.000000, -3276.000000)">
            <g id="Connect-Col" transform="translate(1290.000000, 3227.000000)">
                <g id="Group-6" transform="translate(48.000000, 49.000000)">
                    <g id="Page-1">
                        <polygon id="Fill-1" fill="#000000" points="15.3675091 8.41343333 24.1963009 14.3089121 25.4349624 13.6660176"></polygon>
                        <g id="Group-5" transform="translate(0.000000, 0.011750)">
                            <mask id="mask-2" fill="white">
                                <use xlink:href="#path-1"></use>
                            </mask>
                            <g id="Clip-4"></g>
                            <path d="M12.8204587,19.7576555 L12.8190399,8.77167892 L21.1507253,14.2838066 L12.8204587,19.7576555 Z M31.1132175,6.86850201 C31.1132175,6.86850201 30.8119184,4.17410512 29.8874333,2.98758137 C28.7148996,1.4302522 27.4006064,1.42255819 26.7978874,1.33137841 C22.4830101,0.935883249 16.0104678,0.935883249 16.0104678,0.935883249 L15.9970647,0.935883249 C15.9970647,0.935883249 9.52467332,0.935883249 5.20964511,1.33137841 C4.60689597,1.42255819 3.29308577,1.4302522 2.12012936,2.98758137 C1.19561414,4.17410512 0.894767847,6.86850201 0.894767847,6.86850201 C0.894767847,6.86850201 0.586404923,10.0325781 0.586404923,13.1966925 L0.586404923,16.163021 C0.586404923,19.3270588 0.894767847,22.4911349 0.894767847,22.4911349 C0.894767847,22.4911349 1.19561414,25.1855701 2.12012936,26.3720939 C3.29308577,27.9293848 4.83384384,27.8801584 5.52006077,28.0433786 C7.98690379,28.3433302 16.0037964,28.436156 16.0037964,28.436156 C16.0037964,28.436156 22.4830101,28.4237537 26.7978874,28.0282585 C27.4006064,27.937117 28.7148996,27.9293848 29.8874333,26.3720939 C30.8119184,25.1855701 31.1132175,22.4911349 31.1132175,22.4911349 C31.1132175,22.4911349 31.4211578,19.3270588 31.4211578,16.163021 L31.4211578,13.1966925 C31.4211578,10.0325781 31.1132175,6.86850201 31.1132175,6.86850201 L31.1132175,6.86850201 Z" id="Fill-3" fill="#FFFFFF" mask="url(#mask-2)"></path>
                        </g>
                    </g>
                </g>
            </g>
        </g>
    </g>
</svg>